HIERARCHY
ROOT Hips
{
	OFFSET 0.000000 0.000000 0.000000
	CHANNELS 6 Xposition Yposition Zposition Zrotation Xrotation Yrotation
	JOINT Spine1
	{
		OFFSET 0.000000 -0.000045 277.694702
		CHANNELS 6 Xposition Yposition Zposition Zrotation Xrotation Yrotation
		JOINT Neck
		{
			OFFSET 0.000000 -0.000036 221.388000
			CHANNELS 6 Xposition Yposition Zposition Zrotation Xrotation Yrotation
			JOINT Head
			{
				OFFSET 0.000000 -18.163622 140.768005
				CHANNELS 6 Xposition Yposition Zposition Zrotation Xrotation Yrotation
				End Site
				{
					OFFSET 0.000000 -0.000029 181.635559
				}
			}
		}
		JOINT LeftShoulder
		{
			OFFSET 36.576698 4.801211 178.758972
			CHANNELS 6 Xposition Yposition Zposition Zrotation Xrotation Yrotation
			JOINT LeftArm
			{
				OFFSET 130.515991 0.000000 0.000000
				CHANNELS 6 Xposition Yposition Zposition Zrotation Xrotation Yrotation
				JOINT LeftForeArm
				{
					OFFSET 255.920990 0.000000 0.000000
					CHANNELS 6 Xposition Yposition Zposition Zrotation Xrotation Yrotation
					JOINT LeftHand
					{
						OFFSET 237.844971 0.000000 0.000000
						CHANNELS 6 Xposition Yposition Zposition Zrotation Xrotation Yrotation
						End Site
						{
							OFFSET 136.226685 0.000000 0.000000
						}
					}
				}
			}
		}
		JOINT RightShoulder
		{
			OFFSET -36.072102 4.801211 178.758972
			CHANNELS 6 Xposition Yposition Zposition Zrotation Xrotation Yrotation
			JOINT RightArm
			{
				OFFSET -130.515991 0.000000 0.000000
				CHANNELS 6 Xposition Yposition Zposition Zrotation Xrotation Yrotation
				JOINT RightForeArm
				{
					OFFSET -255.921005 0.000000 0.000000
					CHANNELS 6 Xposition Yposition Zposition Zrotation Xrotation Yrotation
					JOINT RightHand
					{
						OFFSET -237.845032 0.000000 0.000000
						CHANNELS 6 Xposition Yposition Zposition Zrotation Xrotation Yrotation
						End Site
						{
							OFFSET -136.226685 0.000000 0.000000
						}
					}
				}
			}
		}
	}
	JOINT LeftUpLeg
	{
		OFFSET 90.818001 0.000000 0.000000
		CHANNELS 6 Xposition Yposition Zposition Zrotation Xrotation Yrotation
		JOINT LeftLeg
		{
			OFFSET 0.000000 0.000062 -381.949005
			CHANNELS 6 Xposition Yposition Zposition Zrotation Xrotation Yrotation
			JOINT LeftFoot
			{
				OFFSET 0.000000 0.000065 -400.430023
				CHANNELS 6 Xposition Yposition Zposition Zrotation Xrotation Yrotation
				JOINT LeftToeBase
				{
					OFFSET 0.000000 -136.226974 -59.031677
					CHANNELS 6 Xposition Yposition Zposition Zrotation Xrotation Yrotation
					End Site
					{
						OFFSET 0.000000 -36.327118 0.000000
					}
				}
			}
		}
	}
	JOINT RightUpLeg
	{
		OFFSET -90.818001 0.000000 0.000000
		CHANNELS 6 Xposition Yposition Zposition Zrotation Xrotation Yrotation
		JOINT RightLeg
		{
			OFFSET 0.000000 0.000062 -381.949005
			CHANNELS 6 Xposition Yposition Zposition Zrotation Xrotation Yrotation
			JOINT RightFoot
			{
				OFFSET 0.000000 0.000065 -400.430023
				CHANNELS 6 Xposition Yposition Zposition Zrotation Xrotation Yrotation
				JOINT RightToeBase
				{
					OFFSET 0.000000 -136.226974 -59.031677
					CHANNELS 6 Xposition Yposition Zposition Zrotation Xrotation Yrotation
					End Site
					{
						OFFSET 0.000000 -36.327118 0.000000
					}
				}
			}
		}
	}
}
MOTION
Frames: 6
Frame Time: 0.041667
31.402521 43.095959 745.523254 2.321249 11.644960 -1.484607 -0.000009 -0.000031 277.694672 -1.260536 -5.134360 -4.388903 -0.000010 -0.000029 221.388138 2.566712 5.719504 -2.454551 0.000003 -18.163565 140.767883 3.029359 9.960382 3.548843 36.576694 4.801218 178.759079 0.092900 -8.889846 -21.667617 130.515915 -0.000003 -0.000147 -8.353394 -9.949527 8.424306 255.921036 0.000018 0.000001 -1.958462 -9.683146 -2.628853 237.844940 -0.000018 0.000018 3.917414 -9.465426 7.756330 -36.072117 4.801206 178.759018 -6.162881 -4.679598 18.289322 -130.516037 -0.000001 -0.000146 20.932353 21.986809 -1.849126 -255.921066 -0.000014 0.000014 66.873214 35.506742 47.151528 -237.845154 0.000199 0.000017 5.605003 5.440236 28.128944 90.817986 0.000008 -0.000038 19.050116 -35.338446 -14.124811 -0.000044 0.000074 -381.949127 6.859589 33.304870 6.372816 -0.000033 0.000051 -400.430084 15.106594 0.260709 8.253559 0.000010 -136.226929 -59.031746 -0.000001 0.000002 0.000001 -90.818008 0.000014 -0.000023 5.643539 -29.410467 30.469740 0.000043 0.000066 -381.949036 -15.580213 40.125254 -20.193598 0.000021 0.000067 -400.430054 -32.494748 -13.409639 2.417767 0.000027 -136.226959 -59.031742 -0.000001 0.000002 0.000000 
32.043076 42.888046 744.929565 2.261051 11.568241 -1.495872 0.000005 -0.000016 277.694672 -1.202918 -5.052497 -4.428539 -0.000004 -0.000033 221.388046 2.560074 5.749437 -2.394912 -0.000024 -18.163574 140.767883 3.016242 10.007667 3.567247 36.576687 4.801208 178.758896 0.115450 -8.887615 -21.639258 130.516037 -0.000010 0.000023 -8.332676 -9.948064 8.472885 255.921021 -0.000012 0.000012 -1.944444 -9.716085 -2.634752 237.845047 0.000037 -0.000008 3.943849 -9.494821 7.802548 -36.072105 4.801216 178.759018 -6.166198 -4.645137 18.277771 -130.515961 -0.000025 -0.000212 20.932262 21.914980 -1.964994 -255.920990 0.000025 0.000160 67.138430 35.692755 47.190224 -237.845078 -0.000032 0.000121 5.588468 5.442591 27.985698 90.818008 0.000019 0.000004 19.024589 -35.344836 -14.298564 0.000009 0.000053 -381.948975 6.826347 33.621261 6.620832 0.000005 0.000085 -400.430054 15.154296 -0.090948 8.402437 0.000009 -136.226974 -59.031673 0.000003 -0.000000 -0.000001 -90.817993 0.000020 -0.000008 5.537793 -29.217995 30.708773 -0.000025 0.000085 -381.948975 -15.943854 40.164033 -20.347463 0.000013 0.000040 -400.430084 -32.548075 -13.318565 1.980882 -0.000008 -136.226944 -59.031677 -0.000003 0.000001 0.000000 
32.715553 42.698734 744.299744 2.180122 11.514035 -1.483382 0.000001 -0.000052 277.694641 -1.128713 -4.995679 -4.491201 -0.000014 -0.000052 221.387985 2.555072 5.796550 -2.325058 -0.000003 -18.163685 140.767731 3.003031 10.012495 3.547429 36.576679 4.801208 178.758865 0.101431 -8.902394 -21.644803 130.515945 -0.000004 -0.000115 -8.288760 -9.919788 8.550099 255.920929 0.000025 -0.000012 -1.915154 -9.762169 -2.605469 237.844910 0.000031 0.000104 3.977094 -9.538146 7.785322 -36.072117 4.801210 178.758896 -6.140711 -4.642047 18.247301 -130.515991 0.000007 0.000142 20.908123 21.805685 -2.066224 -255.920944 0.000023 0.000054 67.347824 35.948781 47.198082 -237.845108 -0.000013 0.000034 5.534961 5.590458 27.930998 90.818008 0.000011 0.000013 19.062394 -35.403968 -14.428186 -0.000037 0.000060 -381.949036 6.932063 33.967624 6.719473 0.000005 0.000007 -400.429993 15.038147 -0.427412 8.548672 -0.000012 -136.226990 -59.031670 -0.000000 -0.000003 -0.000002 -90.818008 0.000005 -0.000011 5.434014 -29.068267 30.924481 -0.000010 0.000081 -381.948944 -16.270395 40.202326 -20.503263 -0.000025 0.000071 -400.430054 -32.550438 -13.120863 1.705143 0.000007 -136.226990 -59.031681 -0.000004 0.000002 0.000000 
33.300652 42.398384 743.718506 2.059616 11.464062 -1.476722 -0.000005 -0.000052 277.694611 -1.019655 -4.946141 -4.529881 0.000002 -0.000063 221.388046 2.537358 5.830106 -2.309290 0.000012 -18.163588 140.767990 2.983475 10.052136 3.597847 36.576714 4.801190 178.758865 0.115765 -8.915326 -21.638811 130.516037 -0.000006 0.000094 -8.280547 -10.019891 8.593307 255.921036 -0.000009 -0.000142 -1.829874 -9.714527 -2.571790 237.844925 0.000030 0.000012 3.934042 -9.488944 7.843678 -36.072094 4.801192 178.758942 -6.175521 -4.602705 18.209467 -130.515991 -0.000008 -0.000095 20.970066 21.657490 -2.170434 -255.921005 -0.000066 0.000149 67.490506 36.193258 47.235242 -237.845093 0.000046 0.000080 5.453285 5.738859 27.889553 90.817993 0.000008 -0.000048 18.849131 -35.370674 -14.727894 -0.000014 0.000045 -381.949005 6.883528 34.265901 7.058223 -0.000033 0.000003 -400.429993 15.183707 -0.764764 8.526183 -0.000007 -136.226929 -59.031738 -0.000000 0.000001 -0.000001 -90.818001 -0.000001 -0.000050 5.433450 -28.893199 31.154279 -0.000055 0.000073 -381.948944 -16.489134 40.188809 -20.693231 0.000029 0.000056 -400.429962 -32.549649 -12.894867 1.238034 0.000014 -136.226974 -59.031681 0.000003 0.000000 -0.000002 
33.874588 42.146938 743.114868 1.922479 11.422314 -1.445872 -0.000003 -0.000025 277.694702 -0.918915 -4.897422 -4.605043 -0.000008 -0.000044 221.388046 2.536109 5.873248 -2.284809 0.000013 -18.163643 140.767944 2.980797 10.061455 3.647805 36.576683 4.801201 178.758881 0.107742 -8.926381 -21.620154 130.516006 -0.000001 0.000052 -8.215664 -10.081271 8.638946 255.920975 0.000000 -0.000007 -1.800314 -9.706191 -2.537741 237.845047 0.000045 0.000067 3.969995 -9.478215 7.807839 -36.072117 4.801200 178.759064 -6.179905 -4.574553 18.169480 -130.515991 -0.000011 -0.000196 21.022120 21.556183 -2.240333 -255.920929 0.000005 -0.000076 67.712153 36.341480 47.225670 -237.845093 0.000173 0.000084 5.532297 5.799674 27.944906 90.817993 0.000008 -0.000017 18.775034 -35.378491 -14.957894 0.000009 0.000079 -381.949005 6.713644 34.544969 7.382772 0.000027 0.000034 -400.430084 15.330802 -1.065503 8.528037 -0.000015 -136.226944 -59.031677 -0.000002 -0.000000 0.000002 -90.818001 0.000024 0.000057 5.410900 -28.749567 31.301767 -0.000032 0.000054 -381.949036 -16.690008 40.132450 -20.765887 0.000021 0.000071 -400.430115 -32.482771 -12.485702 0.610482 0.000016 -136.226959 -59.031673 0.000001 -0.000002 -0.000000 
34.429913 41.939228 742.569946 1.781154 11.409217 -1.411268 -0.000004 -0.000050 277.694702 -0.811321 -4.911805 -4.662770 0.000005 -0.000025 221.388168 2.524039 5.955300 -2.276008 -0.000019 -18.163597 140.767914 2.966488 10.062898 3.677126 36.576714 4.801214 178.759140 0.135316 -8.922288 -21.641038 130.515869 -0.000002 -0.000022 -8.209180 -10.211280 8.717040 255.920959 0.000027 0.000098 -1.719680 -9.653451 -2.528737 237.845062 -0.000006 0.000092 3.997095 -9.419577 7.869700 -36.072109 4.801207 178.759140 -6.144207 -4.582167 18.154945 -130.516006 -0.000012 0.000077 21.071960 21.536881 -2.397041 -255.921005 0.000024 0.000028 67.792086 36.555579 47.341769 -237.845139 -0.000086 0.000099 5.441566 5.887716 27.988268 90.817993 0.000011 -0.000019 18.701558 -35.429837 -15.123588 0.000017 0.000025 -381.949005 6.865830 34.840068 7.420457 0.000028 0.000058 -400.429993 15.243761 -1.303803 8.540638 -0.000023 -136.227005 -59.031738 -0.000001 0.000000 0.000000 -90.818008 -0.000007 -0.000080 5.406622 -28.631111 31.446874 -0.000017 0.000066 -381.949036 -16.869181 40.034392 -20.834845 0.000028 0.000079 -400.429993 -32.245941 -11.969118 0.239554 0.000008 -136.226959 -59.031681 -0.000004 0.000000 -0.000002 
